<svg xmlns="http://www.w3.org/2000/svg" viewBox="0 0 82 82"><defs><style>.cls-1{fill:#fff;}</style></defs><title>Android</title><g id="Layer_2" data-name="Layer 2"><g id="Icons"><path class="cls-1" d="M41,82A41,41,0,1,1,82,41,41,41,0,0,1,41,82ZM41,2A39,39,0,1,0,80,41,39,39,0,0,0,41,2Z"/><path class="cls-1" d="M46.44,26.15l.39-.59.39-.58.87-1.3a.35.35,0,1,0-.58-.39l-.93,1.4-.39.58-.4.6a11.67,11.67,0,0,0-8.3,0l-.4-.6-.39-.58-.93-1.4a.35.35,0,1,0-.58.39l.87,1.3.39.58.39.59c-3,1.38-5,4-5,7H51.4C51.4,30.13,49.4,27.52,46.44,26.15Zm-9,4.18a1,1,0,1,1,1-1A1,1,0,0,1,37.46,30.33Zm8.37,0a1,1,0,1,1,1-1A1,1,0,0,1,45.83,30.33Z"/><path class="cls-1" d="M32,34.51h-.15V49.84A2.21,2.21,0,0,0,34.09,52h1.59a2,2,0,0,0-.08.58V57a2.09,2.09,0,1,0,4.18,0V52.63A1.94,1.94,0,0,0,39.7,52h3.89a2,2,0,0,0-.08.58V57a2.09,2.09,0,1,0,4.19,0V52.63A2,2,0,0,0,47.6,52h1.6a2.21,2.21,0,0,0,2.21-2.21V34.51H32Z"/><path class="cls-1" d="M28.39,34.51A2.09,2.09,0,0,0,26.3,36.6v8.94a2.09,2.09,0,0,0,4.18,0V36.6A2.09,2.09,0,0,0,28.39,34.51Z"/><path class="cls-1" d="M54.89,34.51A2.09,2.09,0,0,0,52.8,36.6v8.94a2.09,2.09,0,0,0,4.18,0V36.6A2.09,2.09,0,0,0,54.89,34.51Z"/></g></g></svg>