<svg xmlns="http://www.w3.org/2000/svg" viewBox="0 0 82 82"><defs><style>.cls-1{fill:#fff;}</style></defs><title>Dropbox</title><g id="Layer_2" data-name="Layer 2"><g id="Icons"><path class="cls-1" d="M41,82A41,41,0,1,1,82,41,41,41,0,0,1,41,82ZM41,2A39,39,0,1,0,80,41,39,39,0,0,0,41,2Z"/><polygon class="cls-1" points="23 42.9 33.59 49.81 41 43.63 30.32 37.04 23 42.9"/><polygon class="cls-1" points="33.59 24.27 23 31.17 30.32 37.04 41 30.45 33.59 24.27"/><polygon class="cls-1" points="59 31.17 48.41 24.27 41 30.45 51.68 37.04 59 31.17"/><polygon class="cls-1" points="41 43.63 48.41 49.81 59 42.9 51.68 37.04 41 43.63"/><polygon class="cls-1" points="41.02 44.96 33.59 51.12 30.41 49.05 30.41 51.37 41.02 57.73 51.63 51.37 51.63 49.05 48.45 51.12 41.02 44.96"/></g></g></svg>