<svg xmlns="http://www.w3.org/2000/svg" viewBox="0 0 82 82"><defs><style>.cls-1{fill:#fff;}</style></defs><title>Instagram</title><g id="Layer_2" data-name="Layer 2"><g id="Icons"><path class="cls-1" d="M41,82A41,41,0,1,1,82,41,41,41,0,0,1,41,82ZM41,2A39,39,0,1,0,80,41,39,39,0,0,0,41,2Z"/><path class="cls-1" d="M52,23H30a7,7,0,0,0-7,7V52a7,7,0,0,0,7,7H52a7,7,0,0,0,7-7V30A7,7,0,0,0,52,23Zm2,4.15h.79v6.1l-6.08,0,0-6.1ZM35.87,37.31A6.32,6.32,0,1,1,34.67,41,6.33,6.33,0,0,1,35.87,37.31ZM55.5,52A3.45,3.45,0,0,1,52,55.48H30A3.45,3.45,0,0,1,26.51,52V37.31h5.37a9.84,9.84,0,1,0,18.24,0H55.5Z"/></g></g></svg>