<svg xmlns="http://www.w3.org/2000/svg" viewBox="0 0 82 82"><defs><style>.cls-1{fill:#fff;}</style></defs><title>Tumblr</title><g id="Layer_2" data-name="Layer 2"><g id="Icons"><path class="cls-1" d="M41,82A41,41,0,1,1,82,41,41,41,0,0,1,41,82ZM41,2A39,39,0,1,0,80,41,39,39,0,0,0,41,2Z"/><path class="cls-1" d="M41.28,23v9.1h8.54v5.65H41.28V47a14.58,14.58,0,0,0,.33,4,2.71,2.71,0,0,0,1.24,1.42,5.17,5.17,0,0,0,2.73.72A9.85,9.85,0,0,0,51,51.36V57a21.7,21.7,0,0,1-4.18,1.52,17.58,17.58,0,0,1-4,.44,14,14,0,0,1-4.36-.62A9.39,9.39,0,0,1,35.2,56.6a6.44,6.44,0,0,1-1.86-2.46,10.61,10.61,0,0,1-.52-3.77V37.75h-4V32.66a10.63,10.63,0,0,0,3.64-2,9.88,9.88,0,0,0,2.43-3.09A13.89,13.89,0,0,0,36.17,23Z"/></g></g></svg>