<svg xmlns="http://www.w3.org/2000/svg" viewBox="0 0 82 82"><defs><style>.cls-1{fill:#fff;}</style></defs><title>Vimeo</title><g id="Layer_2" data-name="Layer 2"><g id="Icons"><path class="cls-1" d="M41,82A41,41,0,1,1,82,41,41,41,0,0,1,41,82ZM41,2A39,39,0,1,0,80,41,39,39,0,0,0,41,2Z"/><path class="cls-1" d="M59,33.58q-.24,5.25-7.34,14.35-7.34,9.52-12.43,9.52-3.14,0-5.32-5.8L31,41q-1.62-5.81-3.47-5.81a11.07,11.07,0,0,0-2.82,1.69L23,34.71q2.66-2.33,5.25-4.67c2.36-2,4.14-3.12,5.33-3.23q4.19-.41,5.17,5.72,1,6.62,1.45,8.23,1.21,5.48,2.66,5.48,1.12,0,3.39-3.54c1.51-2.37,2.31-4.17,2.42-5.41q.32-3.06-2.42-3.06a6.86,6.86,0,0,0-2.66.56q2.67-8.63,10.17-8.39Q59.3,26.56,59,33.58Z"/></g></g></svg>