<svg xmlns="http://www.w3.org/2000/svg" viewBox="0 0 82 82"><defs><style>.cls-1{fill:#fff;}</style></defs><title>Behance</title><g id="Layer_2" data-name="Layer 2"><g id="Icons"><path class="cls-1" d="M41,82A41,41,0,1,1,82,41,41,41,0,0,1,41,82ZM41,2A39,39,0,1,0,80,41,39,39,0,0,0,41,2Z"/><path class="cls-1" d="M39.52,32a5.68,5.68,0,0,1,1,3.4,5,5,0,0,1-1,3.28,5.3,5.3,0,0,1-1.7,1.27,5,5,0,0,1,2.57,2,5.9,5.9,0,0,1,.87,3.26,6.47,6.47,0,0,1-1,3.55,6.14,6.14,0,0,1-4.09,2.87,15.4,15.4,0,0,1-3.14.3H23V29.59H33.75Q37.82,29.65,39.52,32ZM27.44,33.45v4.91h5.41a4.49,4.49,0,0,0,2.35-.55,2.11,2.11,0,0,0,.9-2,2,2,0,0,0-1.19-2.06,8.38,8.38,0,0,0-2.63-.35Zm0,8.59V48h5.4a5.27,5.27,0,0,0,2.25-.39,2.8,2.8,0,0,0,1.46-2.78,2.39,2.39,0,0,0-1.42-2.39A5.65,5.65,0,0,0,32.91,42ZM54.7,35.72a6.64,6.64,0,0,1,2.84,2.44,8,8,0,0,1,1.31,3.4A21.22,21.22,0,0,1,59,44.83H47a4,4,0,0,0,1.72,3.47,4.36,4.36,0,0,0,2.37.62,3.64,3.64,0,0,0,2.39-.75A3.55,3.55,0,0,0,54.38,47h4.39a5.41,5.41,0,0,1-1.59,3A8,8,0,0,1,51,52.41a8.94,8.94,0,0,1-5.79-2q-2.52-2-2.51-6.59,0-4.28,2.26-6.57A7.94,7.94,0,0,1,50.83,35,9.35,9.35,0,0,1,54.7,35.72Zm-6.43,3.72A4.49,4.49,0,0,0,47.12,42h7.41a3.61,3.61,0,0,0-1.15-2.6,3.78,3.78,0,0,0-2.55-.89A3.41,3.41,0,0,0,48.26,39.44Zm7.27-8.82H46V33.4h9.53Z"/></g></g></svg>