<svg xmlns="http://www.w3.org/2000/svg" viewBox="0 0 82 82"><defs><style>.cls-1,.cls-2{fill:#fff;}.cls-2{fill-rule:evenodd;}</style></defs><title>Dribbble</title><g id="Layer_2" data-name="Layer 2"><g id="Icons"><path class="cls-1" d="M41,82A41,41,0,1,1,82,41,41,41,0,0,1,41,82ZM41,2A39,39,0,1,0,80,41,39,39,0,0,0,41,2Z"/><path class="cls-2" d="M58.62,37.38a18,18,0,0,0-2.7-6.44,18.31,18.31,0,0,0-2.2-2.66,17.88,17.88,0,0,0-9.1-4.91,18,18,0,0,0-18.54,7.57A17.8,17.8,0,0,0,24.43,34a18,18,0,0,0,0,14,17.8,17.8,0,0,0,1.66,3.06A18,18,0,0,0,41,59a18,18,0,0,0,12.72-5.27,18.36,18.36,0,0,0,2.2-2.66,18,18,0,0,0,2.7-13.69Zm-2.26,3.47a35.5,35.5,0,0,0-10.7-.5l-.33-.79c-.32-.75-.66-1.5-1-2.23,6.06-2.48,8.53-6,8.55-6.08A15.3,15.3,0,0,1,56.36,40.85ZM51.15,29.46c0,.06-2.23,3.39-8,5.57a77.89,77.89,0,0,0-5.74-9,15.33,15.33,0,0,1,13.77,3.4ZM37.32,26.07h0Zm-2.87,1A91.89,91.89,0,0,1,40.15,36,56.75,56.75,0,0,1,26,37.83,15.39,15.39,0,0,1,34.45,27.1ZM25.64,41c0-.16,0-.32,0-.48a56.41,56.41,0,0,0,15.77-2.19c.44.86.86,1.74,1.25,2.61l-.61.18C33.77,43.8,29.57,51.26,29.57,51.26h0A15.32,15.32,0,0,1,25.64,41ZM41,56.37a15.3,15.3,0,0,1-9.79-3.52l.35.27s2.94-6.43,12.05-9.6l.1,0A63.64,63.64,0,0,1,47,55.15,15.29,15.29,0,0,1,41,56.37Zm8.58-2.62a66.72,66.72,0,0,0-3-11,22.21,22.21,0,0,1,9.57.67A15.37,15.37,0,0,1,49.58,53.75Z"/></g></g></svg>