<svg xmlns="http://www.w3.org/2000/svg" viewBox="0 0 82 82"><defs><style>.cls-1{fill:#fff;}</style></defs><title>Ebay</title><g id="Layer_2" data-name="Layer 2"><g id="Icons"><path class="cls-1" d="M41,82A41,41,0,1,1,82,41,41,41,0,0,1,41,82ZM41,2A39,39,0,1,0,80,41,39,39,0,0,0,41,2Z"/><path class="cls-1" d="M23.46,35.69c-5.93,0-6.16,4.62-6.13,5.81,0,0-.29,5.4,6,5.4,5.4,0,5.66-3.39,5.66-3.39H26.49s-.48,1.87-3.17,1.82a3.54,3.54,0,0,1-3.59-3.41H29.3S30,35.69,23.46,35.69Zm-3.64,4.6a3.31,3.31,0,0,1,3.58-3,3.09,3.09,0,0,1,3.4,3Z"/><path class="cls-1" d="M35.94,35.69a5.24,5.24,0,0,0-4.27,1.77v-6H29.28l0,12.6s0,1.47-.11,2.44h2.32l.1-1.41s1.08,1.78,4.25,1.78a5.37,5.37,0,0,0,5.74-5.56A5.43,5.43,0,0,0,35.94,35.69Zm-.55,9.6c-3.77,0-3.71-4-3.71-4s-.14-3.89,3.7-4,3.71,4.07,3.71,4.07S39.16,45.24,35.4,45.29Z"/><path class="cls-1" d="M52.68,44c0-1.63.05-3.09,0-4.11-.06-1.19.05-4.07-5.1-4.28,0,0-4.94-.45-5.45,3.22h2.53s.2-1.68,2.76-1.63,2.87,1.23,2.86,2.7H47.5c-1.25,0-5.63.14-6,2.81C41,45.92,43.8,46.91,46,46.9A5.09,5.09,0,0,0,50.43,45l.1,1.48h2.2S52.68,45.68,52.68,44Zm-6.25,1.33s-2.4,0-2.54-1.91,3.69-1.92,3.69-1.92h2.71S50.73,45.43,46.43,45.38Z"/><polygon class="cls-1" points="51.37 36.09 54.15 36.09 58.21 44.18 62.28 36.09 64.79 36.09 57.44 50.51 54.76 50.51 56.88 46.5 51.37 36.09"/></g></g></svg>