<svg xmlns="http://www.w3.org/2000/svg" viewBox="0 0 82 82"><defs><style>.cls-1{fill:#fff;}</style></defs><title>Google Drive</title><g id="Layer_2" data-name="Layer 2"><g id="Icons"><path class="cls-1" d="M41,82A41,41,0,1,1,82,41,41,41,0,0,1,41,82ZM41,2A39,39,0,1,0,80,41,39,39,0,0,0,41,2Z"/><polygon class="cls-1" points="35.66 47.6 35.46 47.6 35.36 47.77 30.49 56.3 30.19 56.81 30.79 56.81 53.53 56.81 53.73 56.81 53.83 56.64 58.7 48.11 59 47.6 58.41 47.6 35.66 47.6"/><polygon class="cls-1" points="48.29 45.44 48.39 45.62 48.59 45.62 58.41 45.58 59 45.57 58.7 45.06 47.33 25.36 47.23 25.19 47.03 25.19 37.21 25.23 36.62 25.23 36.91 25.75 48.29 45.44"/><polygon class="cls-1" points="40.12 35.43 40.02 35.26 35.07 26.77 34.77 26.26 34.48 26.77 23.1 46.47 23 46.64 23.1 46.81 28.05 55.3 28.35 55.81 28.64 55.3 40.02 35.6 40.12 35.43"/></g></g></svg>