<svg xmlns="http://www.w3.org/2000/svg" viewBox="0 0 82 82"><defs><style>.cls-1{fill:#fff;}</style></defs><title>Pintrest</title><g id="Layer_2" data-name="Layer 2"><g id="Icons"><path class="cls-1" d="M41,82A41,41,0,1,1,82,41,41,41,0,0,1,41,82ZM41,2A39,39,0,1,0,80,41,39,39,0,0,0,41,2Z"/><path class="cls-1" d="M41,22.89a18,18,0,0,0-7.21,34.49,15.84,15.84,0,0,1,.31-4.13l2.31-9.81a7,7,0,0,1-.57-2.85c0-2.67,1.54-4.66,3.46-4.66a2.41,2.41,0,0,1,2.42,2.7c0,1.65-1,4.11-1.59,6.39A2.78,2.78,0,0,0,43,48.49c3.4,0,5.7-4.38,5.7-9.57C48.67,35,46,32,41.2,32a8.51,8.51,0,0,0-8.84,8.62,5.21,5.21,0,0,0,1.18,3.53.88.88,0,0,1,.26,1c-.09.33-.28,1.13-.37,1.44a.62.62,0,0,1-.9.45c-2.51-1-3.68-3.78-3.68-6.88,0-5.11,4.3-11.25,12.84-11.25,6.86,0,11.37,5,11.37,10.31,0,7.06-3.92,12.34-9.69,12.34A5.15,5.15,0,0,1,39,49.35s-1,4.15-1.26,5a15.06,15.06,0,0,1-1.81,3.85A18,18,0,1,0,41,22.89"/></g></g></svg>