<svg xmlns="http://www.w3.org/2000/svg" viewBox="0 0 82 82"><defs><style>.cls-1{fill:#fff;}</style></defs><title>Skype</title><g id="Layer_2" data-name="Layer 2"><g id="Icons"><path class="cls-1" d="M41,82A41,41,0,1,1,82,41,41,41,0,0,1,41,82ZM41,2A39,39,0,1,0,80,41,39,39,0,0,0,41,2Z"/><path class="cls-1" d="M58,44.88A17.18,17.18,0,0,0,38.25,24.26,10,10,0,0,0,24.37,37.74,17.38,17.38,0,0,0,24,41.19,17.17,17.17,0,0,0,44.34,58.09,10,10,0,0,0,58,44.88ZM50,49.4a7.83,7.83,0,0,1-3.49,2.65,14,14,0,0,1-5.36.94A13.11,13.11,0,0,1,35,51.71a8.09,8.09,0,0,1-2.83-2.51,5.49,5.49,0,0,1-1.1-3.11,2.17,2.17,0,0,1,.72-1.62,2.52,2.52,0,0,1,1.79-.67,2.29,2.29,0,0,1,1.51.53,4,4,0,0,1,1,1.47,8.48,8.48,0,0,0,1,1.75,3.81,3.81,0,0,0,1.44,1.11,5.91,5.91,0,0,0,2.5.45,6,6,0,0,0,3.46-.9,2.52,2.52,0,0,0,1.27-2.14,2.12,2.12,0,0,0-.66-1.63,4.72,4.72,0,0,0-1.83-1c-.78-.24-1.84-.51-3.15-.78a25.19,25.19,0,0,1-4.5-1.34,7.47,7.47,0,0,1-3-2.16,5.39,5.39,0,0,1-1.11-3.45,5.58,5.58,0,0,1,1.17-3.47A7.23,7.23,0,0,1,36,29.9a14.54,14.54,0,0,1,5-.8,13.62,13.62,0,0,1,4,.53A8.8,8.8,0,0,1,47.92,31a6.07,6.07,0,0,1,1.67,1.88,4.13,4.13,0,0,1,.54,2,2.47,2.47,0,0,1-2.47,2.4,2.18,2.18,0,0,1-1.48-.46,5.59,5.59,0,0,1-1-1.37,5.67,5.67,0,0,0-1.54-1.91,4.81,4.81,0,0,0-2.87-.66,5.36,5.36,0,0,0-3,.73,2,2,0,0,0-1.06,1.65,1.52,1.52,0,0,0,.34,1,3.07,3.07,0,0,0,1,.78,7.5,7.5,0,0,0,1.38.54c.47.13,1.28.33,2.37.58,1.39.3,2.67.63,3.8,1a12.17,12.17,0,0,1,2.94,1.34,5.84,5.84,0,0,1,1.94,2,6.14,6.14,0,0,1,.7,3A6.52,6.52,0,0,1,50,49.4Z"/></g></g></svg>