<svg xmlns="http://www.w3.org/2000/svg" viewBox="0 0 82 82"><defs><style>.cls-1{fill:#fff;}</style></defs><title>Soundcloud</title><g id="Layer_2" data-name="Layer 2"><g id="Icons"><path class="cls-1" d="M41,82A41,41,0,1,1,82,41,41,41,0,0,1,41,82ZM41,2A39,39,0,1,0,80,41,39,39,0,0,0,41,2Z"/><path class="cls-1" d="M25.19,46.52a.15.15,0,0,0,.14-.14l.39-3.08-.39-3.15a.15.15,0,0,0-.15-.14.15.15,0,0,0-.15.14L24.7,43.3,25,46.38A.15.15,0,0,0,25.19,46.52ZM24,45.22Zm-.14.14a.14.14,0,0,0,.14-.14l.3-1.92L24,41.36a.14.14,0,0,0-.28,0L23.5,43.3l.26,1.92A.15.15,0,0,0,23.9,45.36Zm2.84-5.79a.18.18,0,0,0-.35,0l-.33,3.74.33,3.6a.18.18,0,0,0,.35,0l.37-3.6ZM28,47.22a.21.21,0,0,0,.21-.2h0l.35-3.71-.35-3.84a.21.21,0,0,0-.41,0l-.31,3.84L27.75,47A.21.21,0,0,0,28,47.22Zm1.4.06a.24.24,0,0,0,.24-.23h0l.33-3.75-.33-3.56a.24.24,0,0,0-.24-.23.24.24,0,0,0-.23.23l-.29,3.56.29,3.75A.24.24,0,0,0,29.35,47.28Zm2-4L31,37.51a.27.27,0,0,0-.53,0l-.27,5.79.27,3.75a.27.27,0,0,0,.53,0h0Zm.84,4a.3.3,0,0,0,.29-.29h0l.29-3.72-.29-7.12a.3.3,0,0,0-.29-.29.3.3,0,0,0-.29.29l-.26,7.12L31.88,47A.3.3,0,0,0,32.18,47.32Zm1.43-12a.33.33,0,0,0-.32.32L33,43.31,33.28,47a.33.33,0,0,0,.32.32.33.33,0,0,0,.33-.32h0l.27-3.68-.27-7.71A.33.33,0,0,0,33.61,35.27Zm1.44,12a.36.36,0,0,0,.36-.35h0l.25-3.66-.25-8a.35.35,0,0,0-.71,0l-.22,8L34.7,47A.35.35,0,0,0,35.05,47.32Zm1.46,0a.39.39,0,0,0,.38-.38h0l.23-3.63-.23-7.77a.38.38,0,0,0-.77,0l-.2,7.77.2,3.63A.39.39,0,0,0,36.51,47.32Zm2.09-4-.21-7.49a.41.41,0,0,0-.83,0l-.18,7.49.18,3.6a.41.41,0,0,0,.83,0h0Zm.85,4a.45.45,0,0,0,.45-.44h0l.19-3.58-.19-8.91a.44.44,0,0,0-.89,0l-.17,8.9L39,46.89A.45.45,0,0,0,39.45,47.33Zm1.47-14.21a.48.48,0,0,0-.47.47l-.19,9.71.19,3.53a.47.47,0,0,0,.95,0h0l.21-3.53-.21-9.72A.48.48,0,0,0,40.92,33.12Zm1.35,14.21H54.2A4.31,4.31,0,1,0,52.53,39a7.6,7.6,0,0,0-10.32-6.42c-.32.13-.41.25-.41.51V46.82A.52.52,0,0,0,42.26,47.33Z"/></g></g></svg>