<svg xmlns="http://www.w3.org/2000/svg" viewBox="0 0 82 82"><defs><style>.cls-1{fill:#fff;}</style></defs><title>YouTube 1</title><g id="Layer_2" data-name="Layer 2"><g id="Icons"><path class="cls-1" d="M41,82A41,41,0,1,1,82,41,41,41,0,0,1,41,82ZM41,2A39,39,0,1,0,80,41,39,39,0,0,0,41,2Z"/><path class="cls-1" d="M48.37,28.84V35.7a2.4,2.4,0,0,1-.56.49,1.12,1.12,0,0,1-.53.2.45.45,0,0,1-.36-.15.68.68,0,0,1-.13-.47V28.84H44.94v7.55a1.9,1.9,0,0,0,.33,1.22,1.15,1.15,0,0,0,1,.4,2.46,2.46,0,0,0,1.09-.27,4,4,0,0,0,1.05-.85v1h1.85v-9Zm-5.64.44a2.67,2.67,0,0,0-1.89-.67,3.08,3.08,0,0,0-2,.64,2.06,2.06,0,0,0-.74,1.67v4.68a2.41,2.41,0,0,0,.72,1.83,3.16,3.16,0,0,0,3.92,0,2.28,2.28,0,0,0,.73-1.81V31A2.2,2.2,0,0,0,42.72,29.28Zm-1.16,6.5a.75.75,0,0,1-.22.56.8.8,0,0,1-.6.22.72.72,0,0,1-.56-.22.79.79,0,0,1-.2-.56V30.84a.56.56,0,0,1,.22-.47.75.75,0,0,1,.54-.18.92.92,0,0,1,.6.18.56.56,0,0,1,.22.47ZM35.83,25.63l-1.29,4.9h-.15l-1.34-4.9h-2.1L33.43,33v4.85h2.09V32.8l2.41-7.17ZM50.25,47.21a1.28,1.28,0,0,1,.16.73v.83H49v-.83a1.12,1.12,0,0,1,.17-.73.76.76,0,0,1,1.11,0Zm-5.7,0a.61.61,0,0,0-.51-.22.79.79,0,0,0-.35.07,1.39,1.39,0,0,0-.34.26v5.12a1.35,1.35,0,0,0,.4.29,1,1,0,0,0,.38.09.5.5,0,0,0,.45-.18.86.86,0,0,0,.15-.56V47.79A.9.9,0,0,0,44.56,47.17Zm0,0a.61.61,0,0,0-.51-.22.79.79,0,0,0-.35.07,1.39,1.39,0,0,0-.34.26v5.12a1.35,1.35,0,0,0,.4.29,1,1,0,0,0,.38.09.5.5,0,0,0,.45-.18.86.86,0,0,0,.15-.56V47.79A.9.9,0,0,0,44.56,47.17Zm9.31-6.33H28.14A5.17,5.17,0,0,0,23,46v5.25a5.15,5.15,0,0,0,5.14,5.13H53.86A5.16,5.16,0,0,0,59,51.23V46A5.17,5.17,0,0,0,53.86,40.84Zm-18.8,3.61H33.14V54H31.29V44.45h-1.9V42.83h5.68ZM40.47,54H38.82V53a3.08,3.08,0,0,1-.94.76,1.92,1.92,0,0,1-.95.27,1,1,0,0,1-.87-.38,1.78,1.78,0,0,1-.27-1.09V45.74h1.63V52a.67.67,0,0,0,.11.42.37.37,0,0,0,.33.13.82.82,0,0,0,.45-.18,1.7,1.7,0,0,0,.51-.44V45.74h1.65Zm6-1.71A2.08,2.08,0,0,1,46,53.59a1.39,1.39,0,0,1-1.12.47,1.87,1.87,0,0,1-.86-.18,2.26,2.26,0,0,1-.71-.56V54H41.71V42.83h1.65V46.4a2.58,2.58,0,0,1,.71-.56,1.72,1.72,0,0,1,.76-.2,1.42,1.42,0,0,1,1.18.53,2.4,2.4,0,0,1,.42,1.52Zm5.7-2.2H49V51.6a1.72,1.72,0,0,0,.15.89.6.6,0,0,0,.56.25.65.65,0,0,0,.56-.22,1.71,1.71,0,0,0,.16-.93v-.38h1.71v.42a2.58,2.58,0,0,1-.64,1.91,2.37,2.37,0,0,1-1.83.63,2.25,2.25,0,0,1-1.74-.67,2.65,2.65,0,0,1-.63-1.87V47.95A2.3,2.3,0,0,1,48,46.21a2.49,2.49,0,0,1,1.79-.67,2.28,2.28,0,0,1,1.72.64,2.44,2.44,0,0,1,.62,1.78ZM44,46.95a.79.79,0,0,0-.35.07,1.39,1.39,0,0,0-.34.26v5.12a1.35,1.35,0,0,0,.4.29,1,1,0,0,0,.38.09.5.5,0,0,0,.45-.18.86.86,0,0,0,.15-.56V47.79a.9.9,0,0,0-.18-.62A.61.61,0,0,0,44,46.95Zm.51.22a.61.61,0,0,0-.51-.22.79.79,0,0,0-.35.07,1.39,1.39,0,0,0-.34.26v5.12a1.35,1.35,0,0,0,.4.29,1,1,0,0,0,.38.09.5.5,0,0,0,.45-.18.86.86,0,0,0,.15-.56V47.79A.9.9,0,0,0,44.56,47.17Zm0,0a.61.61,0,0,0-.51-.22.79.79,0,0,0-.35.07,1.39,1.39,0,0,0-.34.26v5.12a1.35,1.35,0,0,0,.4.29,1,1,0,0,0,.38.09.5.5,0,0,0,.45-.18.86.86,0,0,0,.15-.56V47.79A.9.9,0,0,0,44.56,47.17Z"/></g></g></svg>