<svg xmlns="http://www.w3.org/2000/svg" viewBox="0 0 82 82"><defs><style>.cls-1{fill:#fff;}</style></defs><title>Bebo</title><g id="Layer_2" data-name="Layer 2"><g id="Icons"><path class="cls-1" d="M41,82A41,41,0,1,1,82,41,41,41,0,0,1,41,82ZM41,2A39,39,0,1,0,80,41,39,39,0,0,0,41,2Z"/><path class="cls-1" d="M45,30.92a14,14,0,0,1,0,28H37a14.17,14.17,0,0,1-14-14V26.22a3.25,3.25,0,1,1,6.5,0q0,9.36,0,18.72A7.56,7.56,0,0,0,37,52.46H45a7.52,7.52,0,0,0,0-15H36.38a3.25,3.25,0,0,1,0-6.51Z"/></g></g></svg>