<svg xmlns="http://www.w3.org/2000/svg" viewBox="0 0 82 82"><defs><style>.cls-1{fill:#fff;}</style></defs><title>Facebook</title><g id="Layer_2" data-name="Layer 2"><g id="Icons"><path class="cls-1" d="M41,82A41,41,0,1,1,82,41,41,41,0,0,1,41,82ZM41,2A39,39,0,1,0,80,41,39,39,0,0,0,41,2Z"/><path class="cls-1" d="M32.32,34.9H36V31.29c0-1.6,0-4.06,1.2-5.58A6.62,6.62,0,0,1,43,23a23.38,23.38,0,0,1,6.67.67l-.93,5.51a12.54,12.54,0,0,0-3-.45c-1.45,0-2.74.52-2.74,2V34.9h5.94l-.41,5.39H43V59H36V40.29H32.32Z"/></g></g></svg>