<svg xmlns="http://www.w3.org/2000/svg" viewBox="0 0 82 82"><defs><style>.cls-1{fill:#fff;}</style></defs><title>PayPal</title><g id="Layer_2" data-name="Layer 2"><g id="Icons"><path class="cls-1" d="M41,82A41,41,0,1,1,82,41,41,41,0,0,1,41,82ZM41,2A39,39,0,1,0,80,41,39,39,0,0,0,41,2Z"/><path class="cls-1" d="M59.23,31.74a9,9,0,0,0-1.12-4c-1.83-3.25-5.56-4.78-9-4.78H30.87L22.76,59H33.5l2.62-11.92h8a15.47,15.47,0,0,0,11.05-4.58,15.12,15.12,0,0,0,3.79-7.23A13.78,13.78,0,0,0,59.23,31.74Zm-10.4,3.52A6.52,6.52,0,0,1,47,38.39a7,7,0,0,1-1.06.81,6.14,6.14,0,0,1-3.21,1h-5l2.13-9.13.18-.72h5.26a4,4,0,0,1,2.34.72A3.75,3.75,0,0,1,48.84,35.26Z"/></g></g></svg>