<svg xmlns="http://www.w3.org/2000/svg" viewBox="0 0 82 82"><defs><style>.cls-1{fill:#fff;}</style></defs><title>Wordpress</title><g id="Layer_2" data-name="Layer 2"><g id="Icons"><path class="cls-1" d="M41,82A41,41,0,1,1,82,41,41,41,0,0,1,41,82ZM41,2A39,39,0,1,0,80,41,39,39,0,0,0,41,2Z"/><path class="cls-1" d="M22.93,41A18,18,0,0,0,33.12,57.2L24.5,33.67A17.87,17.87,0,0,0,22.93,41Zm30.27-.91a9.46,9.46,0,0,0-1.49-5c-.91-1.48-1.77-2.74-1.77-4.22a3.12,3.12,0,0,1,3-3.19l.23,0a18.1,18.1,0,0,0-27.29,3.39l1.16,0c1.89,0,4.81-.23,4.81-.23A.75.75,0,0,1,32,32.39s-1,.11-2.07.17l6.58,19.49,4-11.81-2.82-7.68c-1-.06-1.89-.17-1.89-.17a.75.75,0,0,1,.11-1.49s3,.23,4.76.23,4.82-.23,4.82-.23a.75.75,0,0,1,.11,1.49s-1,.11-2.07.17L50,51.91l1.8-6A16.79,16.79,0,0,0,53.2,40.09ZM41.32,42.58,35.9,58.27A18.15,18.15,0,0,0,47,58a1.77,1.77,0,0,1-.13-.25ZM56.86,32.36A13.61,13.61,0,0,1,57,34.22a16.91,16.91,0,0,1-1.38,6.45L50.09,56.56a18,18,0,0,0,6.77-24.19Z"/></g></g></svg>